<svg width="236" height="49" viewBox="0 0 236 49" fill="none" xmlns="http://www.w3.org/2000/svg">
<path d="M48.7247 39.9514C49.4498 39.5163 50.054 38.9846 50.5374 38.3562C51.0208 37.6795 51.4558 36.9303 51.8425 36.1085C51.8425 36.6886 51.7458 37.2686 51.5525 37.8487C51.3591 38.4287 51.0933 39.0088 50.7549 39.5889C50.3682 40.2172 49.909 40.8698 49.3773 41.5465C48.8456 42.1749 48.3138 42.8517 47.7821 43.5767C47.2987 44.2535 46.8395 44.9544 46.4045 45.6794C46.0178 46.4529 45.7761 47.2263 45.6794 47.9997C45.5827 47.0812 45.3169 46.187 44.8818 45.3169C44.4468 44.4468 43.9634 43.6492 43.4317 42.9242C42.9 42.1991 42.3441 41.5949 41.764 41.1115C41.2323 40.5798 40.8214 40.1931 40.5314 39.9514C40.9181 39.8547 41.1598 39.5889 41.2565 39.1538C41.3532 38.7188 41.4015 38.2354 41.4015 37.7037V30.1629H37.7036V39.9514C37.0752 41.0632 36.3985 42.2958 35.6734 43.6492C34.9484 45.0027 34.2716 46.4529 33.6432 47.9997C33.4016 47.2263 33.1357 46.4045 32.8457 45.5344C32.5556 44.7127 32.2414 43.9393 31.9031 43.2142C31.5647 42.4408 31.2022 41.7641 30.8155 41.184C30.4288 40.6039 30.0421 40.1931 29.6554 39.9514C29.9937 39.5647 30.2354 39.0571 30.3804 38.4287C30.5254 37.8003 30.5979 37.1719 30.5979 36.5436V30.1629H26.32V39.9514C25.74 40.1931 25.1116 40.5798 24.4348 41.1115C23.7581 41.6432 23.1056 42.2716 22.4772 42.9967C21.8488 43.6734 21.2929 44.4468 20.8095 45.3169C20.3261 46.187 20.0361 47.0812 19.9394 47.9997C19.8427 47.1296 19.2627 46.1145 18.1992 44.9544C17.1841 43.8426 15.9757 42.755 14.5739 41.6916C13.1721 40.5798 11.7219 39.5647 10.2235 38.6463C8.77332 37.7278 7.61321 37.0753 6.74312 36.6886C5.87304 36.3019 5.07546 36.0843 4.35039 36.036C3.67366 35.9877 3.04526 36.3985 2.46521 37.2686C1.88515 38.1387 1.61929 39.1538 1.66763 40.3139C1.76431 41.474 2.10267 42.5133 2.68273 43.4317C3.31112 44.3501 4.18121 45.0027 5.29298 45.3894C6.4531 45.7761 7.83073 45.6069 9.42589 44.8819C8.02408 45.7036 6.64645 45.9936 5.29298 45.752C3.98786 45.5103 2.90025 44.9544 2.03017 44.0843C1.16008 43.2142 0.604193 42.1266 0.362503 40.8215C0.120813 39.468 0.386672 38.0662 1.16008 36.6161C1.40177 36.181 1.6918 35.7218 2.03017 35.2384C2.36853 34.755 2.65856 34.2475 2.90025 33.7158C3.19028 33.1357 3.38363 32.5798 3.48031 32.0481C3.62532 31.5164 3.60115 31.0088 3.4078 30.5255C5.05129 30.4288 6.64645 30.7672 8.19326 31.5406C9.74008 32.2656 11.1661 33.0632 12.4712 33.9333V24.7974C12.4712 23.1539 12.1328 21.9213 11.4561 21.0996C10.7794 20.2295 10.0543 19.7461 9.28087 19.6494C8.50746 19.5044 7.83073 19.7703 7.25067 20.447C6.67062 21.0754 6.50143 22.0421 6.74312 23.3473C6.25974 22.3805 6.06639 21.4621 6.16307 20.592C6.30808 19.6736 6.64645 18.9243 7.17817 18.3443C7.70989 17.7642 8.41079 17.4017 9.28087 17.2567C10.1993 17.0633 11.1902 17.1842 12.2537 17.6192C11.9636 16.4108 11.3836 15.3232 10.5135 14.3564C9.64341 13.3413 8.74915 12.6162 7.83073 12.1812C6.91231 11.7461 6.09056 11.6736 5.36549 11.9637C4.64042 12.2537 4.30205 13.0513 4.35039 14.3564C3.96369 13.0513 4.03619 12.1087 4.56791 11.5286C5.09963 10.9002 5.8247 10.5619 6.74312 10.5135C7.70988 10.4168 8.72498 10.5377 9.78842 10.8761C10.9002 11.2144 11.7944 11.6736 12.4712 12.2537C12.4712 10.8035 11.7703 9.78845 10.3685 9.20839C9.64341 8.9667 8.91834 8.79752 8.19326 8.70084C7.46819 8.60417 6.76729 8.60417 6.09056 8.70084C5.07546 8.8942 4.27788 9.25673 3.69783 9.78845C3.11777 10.3202 2.7069 10.9486 2.46521 11.6736C2.27186 12.3504 2.24769 13.0513 2.3927 13.7763C2.58605 14.5014 2.92442 15.1298 3.4078 15.6615C2.97276 15.4682 2.63439 15.154 2.3927 14.7189C2.15101 14.2355 1.95766 13.728 1.81264 13.1963C1.71597 12.6646 1.66763 12.1087 1.66763 11.5286C1.66763 10.9486 1.74014 10.441 1.88515 10.006C2.17518 8.74918 2.41687 7.75825 2.61022 7.03318C2.85191 6.30811 2.65856 5.60721 2.03017 4.93048C2.51355 4.39876 3.31112 4.03622 4.4229 3.84287C5.53467 3.64952 6.42893 3.55284 7.10566 3.55284C7.97574 3.55284 8.89417 3.74619 9.86093 4.1329C10.8277 4.47127 11.8428 4.85797 12.9062 5.29301C13.9697 5.67972 15.0331 6.04225 16.0965 6.38062C17.2083 6.71898 18.3201 6.88816 19.4319 6.88816C18.9001 7.41989 18.4893 7.90327 18.1992 8.33831C17.9575 8.77335 17.8367 9.40174 17.8367 10.2235V31.5406C17.8367 32.314 18.1026 32.8699 18.6343 33.2082L14.7189 35.4559C15.4923 35.9877 16.2415 36.471 16.9666 36.9061C17.6917 37.2928 18.4409 37.6312 19.2143 37.9212V11.2386C19.2143 10.9002 19.166 10.5619 19.0693 10.2235C18.9726 9.88513 18.7551 9.61927 18.4168 9.42591L28.5677 3.55284C29.4862 3.84287 30.4288 4.15707 31.3955 4.49543C32.3623 4.78546 33.3049 5.02715 34.2233 5.2205C34.755 5.31718 35.2867 5.36552 35.8185 5.36552C36.3502 5.31718 36.8819 5.17217 37.4136 4.93048L39.9514 3.55284C40.7731 3.84287 41.7157 4.10873 42.7791 4.35042C43.8909 4.54377 44.8335 4.59211 45.6069 4.49543C46.4287 4.35042 46.9845 3.96372 47.2746 3.33532C47.5646 2.65859 47.3471 1.54681 46.622 -3.22474e-06C47.2504 0.773404 47.6129 1.57098 47.7096 2.39273C47.8063 3.16614 47.7821 3.96371 47.6371 4.78546C47.4921 5.55887 47.2987 6.30811 47.057 7.03318C46.8154 7.75825 46.6945 8.43498 46.6945 9.06338V38.1387L48.7247 39.9514ZM30.5979 9.86096L26.32 8.62834V23.0572H30.5979V9.86096ZM41.4015 10.296C41.4015 10.0543 41.4257 9.86096 41.474 9.71594L37.7036 8.62834V23.0572H41.4015V10.296ZM24.5799 37.7762C24.5799 38.0179 24.604 38.3562 24.6524 38.7913C24.749 39.178 24.9182 39.4197 25.1599 39.5163V8.33831L24.5799 8.19329V37.7762ZM35.9635 32.7732C35.9635 34.175 35.9635 35.4801 35.9635 36.6886C35.9635 37.8487 36.1568 38.7188 36.5435 39.2988V8.33831L35.9635 8.19329V32.7732ZM30.5979 24.2174H26.32V24.7974H30.5979V24.2174ZM41.4015 24.2174H37.7036V24.7974H41.4015V24.2174ZM58.3387 32.7732C58.1453 32.5798 57.952 32.4107 57.7586 32.2656C57.6136 32.1206 57.3961 32.0239 57.1061 31.9756C56.8644 31.8789 56.526 31.8064 56.091 31.7581C55.7043 31.7098 55.1967 31.6856 54.5683 31.6856V38.1387L56.5985 39.9514C56.8886 39.7097 57.2027 39.3713 57.5411 38.9363C57.8795 38.4529 58.1695 37.9212 58.4112 37.3411C58.6529 36.7611 58.7979 36.1085 58.8462 35.3834C58.9429 34.6584 58.8462 33.9333 58.5562 33.2082C58.7012 33.4499 58.8704 33.8125 59.0638 34.2958C59.2571 34.7309 59.4263 35.2143 59.5713 35.746C59.7163 36.2777 59.8372 36.7852 59.9338 37.2686C60.0789 37.7037 60.1755 38.042 60.2239 38.2837C59.6922 38.5254 59.0396 39.0813 58.2662 39.9514C57.5411 40.8215 56.8402 41.7882 56.1635 42.8517C55.4867 43.8668 54.8825 44.8577 54.3508 45.8245C53.8674 46.8396 53.6016 47.5646 53.5532 47.9997C53.4566 47.0812 53.1424 46.1628 52.6106 45.2444C52.0789 44.3743 51.4747 43.5767 50.798 42.8517C50.1696 42.1266 49.517 41.4982 48.8403 40.9665C48.2119 40.4348 47.6802 40.0964 47.2451 39.9514C48.1152 39.4197 48.6711 38.5254 48.9128 37.2686C49.1545 36.0118 49.2753 34.5134 49.2753 32.7732V20.9545C49.227 20.6162 49.1545 20.2778 49.0578 19.9394C48.9611 19.6011 48.7436 19.3352 48.4052 19.1419C49.807 18.3201 51.2813 17.4742 52.8282 16.6041C54.4233 15.6857 55.7526 14.6223 56.816 13.4138C57.5411 14.8156 58.5804 15.7099 59.9338 16.0966C61.3357 16.4833 62.7133 16.4349 64.0668 15.9515C62.5199 17.595 60.8281 19.311 58.9913 21.0996C57.2027 22.8881 55.7284 24.7249 54.5683 26.6101V27.9152C55.3901 27.7702 56.2118 27.4802 57.0336 27.0451C57.9037 26.5617 58.6287 26.03 59.2088 25.45C59.7888 24.8216 60.1272 24.1448 60.2239 23.4198C60.3689 22.6947 60.1514 21.9696 59.5713 21.2446C60.6348 21.6796 61.1665 22.3805 61.1665 23.3473C61.1665 24.2657 60.9489 25.305 60.5139 26.4651C60.1272 27.5768 59.668 28.7128 59.1363 29.8729C58.6046 30.9847 58.3387 31.9514 58.3387 32.7732ZM54.5683 24.5074C54.955 23.8306 55.3901 23.1781 55.8735 22.5497C56.3568 21.873 56.8402 21.2204 57.3236 20.592L54.5683 19.1419V24.5074ZM78.166 39.9514C78.891 39.5163 79.4953 38.9846 79.9787 38.3562C80.462 37.6795 80.8971 36.9303 81.2838 36.1085C81.2838 36.7369 81.1629 37.3895 80.9212 38.0662C80.6796 38.6946 80.3654 39.323 79.9787 39.9514C79.9787 39.9514 79.737 40.2414 79.2536 40.8215C78.8185 41.3532 78.311 42.0299 77.7309 42.8517C77.1509 43.6734 76.595 44.5435 76.0633 45.4619C75.5316 46.4287 75.2174 47.2746 75.1207 47.9997C75.024 47.0812 74.7581 46.187 74.3231 45.3169C73.9364 44.4952 73.453 43.7218 72.873 42.9967C72.3412 42.2716 71.7854 41.6674 71.2053 41.184C70.6252 40.6523 70.1419 40.2414 69.7552 39.9514C70.2385 39.8064 70.5286 39.5889 70.6252 39.2988C70.7703 39.0088 70.8428 38.6463 70.8428 38.2112V21.9696C70.8428 21.6313 70.7703 21.3171 70.6252 21.027C70.5286 20.6887 70.3352 20.3986 70.0452 20.157C69.6101 20.4953 69.1993 21.2446 68.8126 22.4047C68.4742 23.5165 68.16 24.7974 67.87 26.2476C67.6283 27.6977 67.4108 29.1962 67.2174 30.743C67.0241 32.2898 66.9032 33.6433 66.8549 34.8034C66.9516 36.7852 67.1691 38.1387 67.5074 38.8638C67.8458 39.5889 68.4742 39.9514 69.3926 39.9514C69.1509 40.2414 68.8609 40.6523 68.5225 41.184C68.2325 41.6674 67.9183 42.2716 67.5799 42.9967C67.2416 43.6734 66.9274 44.4468 66.6374 45.3169C66.3473 46.187 66.154 47.0812 66.0573 47.9997C65.9606 47.0812 65.6464 46.1628 65.1147 45.2444C64.583 44.3743 63.9546 43.5767 63.2295 42.8517C62.5528 42.1266 61.8761 41.4982 61.1993 40.9665C60.5226 40.4348 59.9667 40.0964 59.5317 39.9514C60.4017 39.4197 60.9335 38.5254 61.1268 37.2686C61.3685 36.0118 61.4894 34.5134 61.4894 32.7732V21.2446C61.4894 20.9545 61.441 20.6645 61.3443 20.3745C61.296 20.0845 61.151 19.8186 60.9093 19.5769L59.5317 18.6343C59.9667 18.0543 60.5709 17.3534 61.3443 16.5316C62.1177 15.6615 62.8428 14.6223 63.5196 13.4138C63.7129 13.7522 63.9304 14.1147 64.1721 14.5014C64.4621 14.8881 64.8005 15.2265 65.1872 15.5165C65.5739 15.8065 66.0331 15.9999 66.5648 16.0966C67.0966 16.1932 67.725 16.1449 68.45 15.9515C67.9183 16.4833 67.5074 16.9666 67.2174 17.4017C66.9757 17.8367 66.8549 18.4651 66.8549 19.2869V26.2476C67.0966 24.1207 67.5316 21.873 68.16 19.5044C68.7884 17.1358 69.8277 15.1056 71.2778 13.4138C71.8579 14.5256 72.5346 15.1781 73.308 15.3715C74.1298 15.5648 74.8307 15.444 75.4107 15.009C75.9908 14.5739 76.3775 13.8972 76.5708 12.9788C76.7642 12.012 76.595 10.9727 76.0633 9.86096C76.7883 10.731 77.1992 11.5528 77.2959 12.3262C77.4409 13.0996 77.4167 13.8247 77.2234 14.5014C77.03 15.1781 76.7883 15.8065 76.4983 16.3866C76.2566 16.9183 76.1358 17.4017 76.1358 17.8367L76.2083 38.1387L78.166 39.9514ZM86.0574 39.9514C86.7824 39.5163 87.3866 38.9846 87.87 38.3562C88.3534 37.6795 88.7885 36.9303 89.1752 36.1085C89.1752 37.2203 88.9335 38.1629 88.4501 38.9363C87.9667 39.7097 87.3866 40.5073 86.7099 41.329C86.0815 42.1024 85.429 43.0209 84.7522 44.0843C84.0755 45.0994 83.4954 46.4045 83.0121 47.9997C82.9154 47.0812 82.6012 46.1628 82.0695 45.2444C81.5377 44.3743 80.9335 43.5767 80.2568 42.8517C79.6284 42.1266 78.9758 41.4982 78.2991 40.9665C77.6707 40.4348 77.139 40.0964 76.7039 39.9514C77.574 39.4197 78.1299 38.5254 78.3716 37.2686C78.6133 36.0118 78.7341 34.5134 78.7341 32.7732V15.2265C78.4441 15.1298 78.1299 15.0331 77.7915 14.9365C77.5015 14.7914 77.1873 14.5981 76.849 14.3564H78.7341V11.6011C78.7341 11.2144 78.6616 10.8761 78.5166 10.586C78.4199 10.2477 78.2024 9.95763 77.8641 9.71594C79.3142 8.8942 80.5226 8.16912 81.4894 7.54073C82.4562 6.864 83.2054 6.21143 83.7371 5.58304C84.2688 4.9063 84.6072 4.22957 84.7522 3.55284C84.8972 2.87611 84.8731 2.1027 84.6797 1.23261C85.0664 1.81267 85.2356 2.46524 85.1873 3.19031C85.1873 3.91538 85.0906 4.64045 84.8972 5.36552C84.7522 6.04225 84.5589 6.67065 84.3172 7.2507C84.1238 7.83076 84.0272 8.28997 84.0272 8.62834V14.3564H87.9425C87.6525 14.6464 87.3141 14.8881 86.9274 15.0815C86.5407 15.2265 86.154 15.4198 85.7673 15.6615C85.429 15.8549 85.0906 16.0966 84.7522 16.3866C84.4139 16.6766 84.1722 17.1117 84.0272 17.6917V38.1387L86.0574 39.9514ZM101.205 33.2807C101.253 33.9575 101.301 34.5617 101.35 35.0934C101.398 35.6251 101.495 36.1085 101.64 36.5436C101.011 36.5919 100.117 37.0511 98.9568 37.9212C97.7967 38.7913 96.6366 39.8305 95.4765 41.039C94.3164 42.2474 93.2771 43.5042 92.3587 44.8094C91.4886 46.0661 91.0052 47.1296 90.9085 47.9997C90.8118 47.0812 90.4977 46.1628 89.9659 45.2444C89.4342 44.3743 88.83 43.5767 88.1533 42.8517C87.5249 42.1266 86.8723 41.4982 86.1956 40.9665C85.5672 40.4348 85.0355 40.0964 84.6004 39.9514C85.4705 39.4197 86.0264 38.5254 86.2681 37.2686C86.5098 36.0118 86.6306 34.5134 86.6306 32.7732V21.027C86.6306 20.6403 86.5581 20.302 86.4131 20.0119C86.3164 19.6736 86.0989 19.3835 85.7605 19.1419C87.1623 18.3201 88.6366 17.4742 90.1835 16.6041C91.7303 15.6857 93.0112 14.6223 94.0263 13.4138C94.2197 13.7522 94.5339 14.0422 94.9689 14.2839C95.4523 14.5256 95.9357 14.7431 96.4191 14.9365C96.9508 15.0815 97.4342 15.2023 97.8692 15.299C98.3526 15.3957 98.7151 15.444 98.9568 15.444C99.4402 15.444 99.8994 15.299 100.334 15.009C100.769 14.7189 101.108 14.3322 101.35 13.8488C101.591 13.3171 101.712 12.7129 101.712 12.0362C101.712 11.3594 101.519 10.6344 101.132 9.86096C101.809 10.6827 102.195 11.5044 102.292 12.3262C102.389 13.0996 102.365 13.8972 102.22 14.7189C102.075 15.4923 101.881 16.2657 101.64 17.0392C101.398 17.8126 101.277 18.5618 101.277 19.2869L101.205 33.2807ZM95.9115 22.1872C95.9115 21.8488 95.8632 21.5346 95.7665 21.2446C95.6698 20.9062 95.4523 20.6162 95.1139 20.3745L91.9236 19.2144V38.1387L93.9538 39.9514C94.3889 39.6614 94.7272 39.2505 94.9689 38.7188C95.2589 38.187 95.4765 37.607 95.6215 36.9786C95.7665 36.3502 95.839 35.7218 95.839 35.0934C95.8873 34.465 95.9115 33.9333 95.9115 33.4983V22.1872ZM118.185 9.86096C119.2 11.0694 119.683 12.2537 119.635 13.4138C119.635 14.5256 119.321 15.6857 118.692 16.8941C118.064 18.0543 117.291 19.2869 116.372 20.592C115.454 21.8971 114.632 23.3473 113.907 24.9424C113.23 26.4892 112.771 28.2294 112.529 30.1629C112.288 32.0481 112.529 34.175 113.254 36.5436C112.578 35.8668 112.094 35.0451 111.804 34.0783C111.514 33.1116 111.345 32.0965 111.297 31.033C111.297 29.9212 111.369 28.8336 111.514 27.7702C111.659 26.7068 111.828 25.7642 112.022 24.9424C112.215 24.0723 112.384 23.3714 112.529 22.8397C112.723 22.308 112.819 22.0421 112.819 22.0421C112.916 21.7038 112.892 21.3412 112.747 20.9545C112.602 20.5678 112.336 20.2778 111.949 20.0845C111.562 19.9394 111.2 20.157 110.862 20.737C110.523 21.3171 110.209 22.1146 109.919 23.1297C109.629 24.1448 109.363 25.3291 109.121 26.6826C108.928 27.9877 108.759 29.2928 108.614 30.598C108.469 31.8548 108.348 33.039 108.251 34.1508C108.155 35.2626 108.13 36.1085 108.179 36.6886C108.227 37.5103 108.396 38.2596 108.686 38.9363C108.976 39.613 109.605 39.9514 110.572 39.9514C110.33 40.2414 110.04 40.6523 109.701 41.184C109.411 41.6674 109.097 42.2716 108.759 42.9967C108.42 43.6734 108.106 44.4468 107.816 45.3169C107.526 46.187 107.333 47.0812 107.236 47.9997C107.14 47.0812 106.825 46.1628 106.294 45.2444C105.762 44.3743 105.134 43.5767 104.408 42.8517C103.732 42.1266 103.055 41.4982 102.378 40.9665C101.702 40.4348 101.146 40.0964 100.711 39.9514C101.581 39.4197 102.137 38.5254 102.378 37.2686C102.62 36.0118 102.741 34.5134 102.741 32.7732V21.2446C102.741 20.9545 102.692 20.6645 102.596 20.3745C102.499 20.0845 102.33 19.8186 102.088 19.5769L100.711 18.6343C101.146 18.0059 101.75 17.2808 102.523 16.4591C103.297 15.6374 104.022 14.6223 104.698 13.4138C104.892 13.7522 105.109 14.1147 105.351 14.5014C105.641 14.8881 105.979 15.2265 106.366 15.5165C106.753 15.7582 107.212 15.9515 107.744 16.0966C108.275 16.1932 108.904 16.1207 109.629 15.879C109.097 16.4591 108.686 16.9666 108.396 17.4017C108.155 17.8367 108.034 18.4651 108.034 19.2869V27.6252C108.13 26.5617 108.275 25.3775 108.469 24.0723C108.662 22.7672 108.928 21.4863 109.266 20.2295C109.605 18.9243 110.04 17.6917 110.572 16.5316C111.103 15.3232 111.732 14.2839 112.457 13.4138C113.037 14.5256 113.762 15.1781 114.632 15.3715C115.502 15.5648 116.275 15.444 116.952 15.009C117.677 14.5739 118.185 13.8972 118.475 12.9788C118.813 12.012 118.716 10.9727 118.185 9.86096ZM123.413 39.9514C124.138 39.5163 124.742 38.9846 125.225 38.3562C125.709 37.6795 126.144 36.9303 126.53 36.1085C126.53 37.2203 126.289 38.1629 125.805 38.9363C125.37 39.7097 124.814 40.5073 124.138 41.329C123.509 42.1024 122.833 43.0209 122.108 44.0843C121.431 45.0994 120.851 46.4045 120.367 47.9997C120.271 47.0812 119.956 46.1628 119.425 45.2444C118.941 44.3743 118.361 43.5767 117.685 42.8517C117.056 42.1266 116.404 41.4982 115.727 40.9665C115.05 40.4348 114.494 40.0964 114.059 39.9514C114.978 39.4197 115.534 38.5254 115.727 37.2686C115.969 36.0118 116.089 34.5134 116.089 32.7732V21.2446C116.089 20.4228 115.896 19.8911 115.509 19.6494C115.123 19.3594 114.639 19.021 114.059 18.6343C114.446 18.1509 114.905 17.6192 115.437 17.0392C116.017 16.4108 116.573 15.6857 117.105 14.8639C117.346 14.4289 117.419 13.9455 117.322 13.4138C117.225 12.8821 116.984 12.4712 116.597 12.1812L113.624 10.0785C113.914 9.74011 114.253 9.32924 114.639 8.84586C115.074 8.36248 115.485 7.85493 115.872 7.32321C116.307 6.79149 116.669 6.25977 116.96 5.72805C117.298 5.148 117.515 4.61628 117.612 4.1329C117.902 5.09966 118.506 6.04225 119.425 6.96068C120.343 7.83076 121.189 8.62834 121.963 9.35341L118.192 13.6313C118.385 13.9697 118.603 14.3322 118.845 14.7189C119.135 15.0573 119.473 15.3473 119.86 15.589C120.247 15.8307 120.706 15.9999 121.237 16.0966C121.769 16.1932 122.373 16.1449 123.05 15.9515C122.518 16.4833 122.108 16.9666 121.817 17.4017C121.576 17.8367 121.455 18.4651 121.455 19.2869V38.1387L123.413 39.9514ZM140.59 39.9514C141.363 39.5163 141.992 38.9846 142.475 38.3562C142.959 37.6795 143.394 36.9303 143.78 36.1085C143.78 37.2203 143.466 38.2596 142.838 39.2263C142.258 40.1931 141.581 41.1357 140.808 42.0541C140.082 42.9725 139.382 43.9151 138.705 44.8819C138.076 45.8486 137.69 46.8879 137.545 47.9997C137.448 47.2746 137.231 46.5495 136.892 45.8245C136.554 45.0994 136.143 44.4227 135.66 43.7943C135.224 43.1659 134.717 42.5858 134.137 42.0541C133.605 41.5224 133.098 41.0873 132.614 40.749C132.228 41.2807 131.792 41.8124 131.309 42.3441C130.874 42.8275 130.439 43.3592 130.004 43.9393C129.569 44.471 129.182 45.0752 128.844 45.752C128.554 46.4287 128.36 47.1779 128.264 47.9997C128.167 47.0812 127.853 46.1628 127.321 45.2444C126.838 44.3743 126.258 43.5767 125.581 42.8517C124.953 42.1266 124.3 41.4982 123.623 40.9665C122.947 40.4348 122.391 40.0964 121.956 39.9514C122.826 39.4197 123.382 38.5254 123.623 37.2686C123.865 36.0118 123.986 34.5134 123.986 32.7732V27.1901C123.986 26.8034 123.913 26.4409 123.768 26.1025C123.672 25.7642 123.454 25.4983 123.116 25.305L126.741 23.2023C126.016 23.1539 125.46 22.9364 125.074 22.5497C124.687 22.163 124.445 21.7038 124.348 21.1721C124.252 20.592 124.252 20.0119 124.348 19.4319C124.493 18.8035 124.735 18.2476 125.074 17.7642C125.509 17.0392 126.064 16.3624 126.741 15.734C127.466 15.1056 128.24 14.3322 129.061 13.4138C129.255 13.7522 129.69 14.0422 130.367 14.2839C131.092 14.5256 131.841 14.7431 132.614 14.9365C133.436 15.0815 134.185 15.2023 134.862 15.299C135.587 15.3957 136.07 15.444 136.312 15.444C136.795 15.444 137.255 15.299 137.69 15.009C138.125 14.7189 138.463 14.3322 138.705 13.8488C138.947 13.3171 139.067 12.7129 139.067 12.0362C139.067 11.3594 138.874 10.6344 138.487 9.86096C139.164 10.6827 139.551 11.5044 139.647 12.3262C139.744 13.0996 139.72 13.8972 139.575 14.7189C139.43 15.4923 139.237 16.2657 138.995 17.0392C138.753 17.8126 138.632 18.5618 138.632 19.2869V38.1387L140.59 39.9514ZM131.309 39.9514C131.841 39.6614 132.228 39.2263 132.469 38.6463C132.759 38.0179 132.953 37.3653 133.049 36.6886C133.194 35.9635 133.267 35.2626 133.267 34.5859C133.267 33.9091 133.267 33.3049 133.267 32.7732V22.5497C133.267 22.2113 133.194 21.8488 133.049 21.4621C132.953 21.0754 132.711 20.8337 132.324 20.737L127.539 19.3594C126.959 19.166 126.499 19.1902 126.161 19.4319C125.823 19.6736 125.605 20.0119 125.509 20.447C125.46 20.8337 125.533 21.2204 125.726 21.6071C125.968 21.9938 126.354 22.2355 126.886 22.3322C127.708 22.4772 128.554 22.3805 129.424 22.0421C130.342 21.6554 131.188 21.2929 131.962 20.9545C131.768 21.1962 131.527 21.4621 131.237 21.7521C130.947 22.0421 130.657 22.3805 130.367 22.7672C130.076 23.1056 129.811 23.4923 129.569 23.9273C129.376 24.3624 129.279 24.8457 129.279 25.3775V38.1387L131.309 39.9514ZM187.301 32.9907C187.301 33.6674 187.325 34.32 187.373 34.9484C187.422 35.5285 187.519 36.0602 187.664 36.5436C187.277 36.5436 186.697 36.7852 185.923 37.2686C185.15 37.7037 184.304 38.2837 183.386 39.0088C182.467 39.7339 181.525 40.5314 180.558 41.4015C179.591 42.2716 178.697 43.1175 177.875 43.9393C177.053 44.761 176.377 45.5344 175.845 46.2595C175.313 46.9846 175.023 47.5646 174.975 47.9997C174.926 47.3229 174.516 46.622 173.742 45.897C173.017 45.1719 172.075 44.4468 170.914 43.7218C169.754 42.9967 168.473 42.2958 167.072 41.619C165.67 40.894 164.268 40.2172 162.866 39.5889C161.513 38.9605 160.232 38.4046 159.023 37.9212C157.863 37.4378 156.921 37.0269 156.195 36.6886C155.325 36.3019 154.528 36.0843 153.803 36.036C153.126 35.9877 152.498 36.3985 151.918 37.2686C151.337 38.1387 151.072 39.1538 151.12 40.3139C151.217 41.474 151.555 42.5133 152.135 43.4317C152.763 44.3501 153.634 45.0027 154.745 45.3894C155.905 45.7761 157.283 45.6069 158.878 44.8819C157.476 45.7036 156.099 45.9936 154.745 45.752C153.44 45.5103 152.353 44.9544 151.482 44.0843C150.612 43.2142 150.057 42.1266 149.815 40.8215C149.573 39.468 149.839 38.0662 150.612 36.6161C150.854 36.181 151.144 35.7218 151.482 35.2384C151.821 34.755 152.111 34.2475 152.353 33.7158C152.643 33.1357 152.836 32.5798 152.933 32.0481C153.078 31.5164 153.053 31.0088 152.86 30.5255C153.295 30.5255 153.779 30.5738 154.31 30.6705C154.745 30.7672 155.277 30.888 155.905 31.033C156.534 31.1297 157.186 31.323 157.863 31.6131C158.395 31.8548 158.999 32.1448 159.676 32.4832C160.353 32.7732 161.102 33.0874 161.924 33.4258V24.7974C161.924 23.1539 161.585 21.9213 160.908 21.0996C160.232 20.2295 159.507 19.7461 158.733 19.6494C157.96 19.5044 157.283 19.7703 156.703 20.447C156.123 21.0754 155.93 22.0421 156.123 23.3473C155.688 22.3805 155.519 21.4621 155.615 20.592C155.76 19.6736 156.099 18.9243 156.63 18.3443C157.162 17.7642 157.863 17.4017 158.733 17.2567C159.652 17.0633 160.643 17.1842 161.706 17.6192C161.416 16.4108 160.836 15.3232 159.966 14.3564C159.096 13.3413 158.201 12.6162 157.283 12.1812C156.365 11.7461 155.543 11.6736 154.818 11.9637C154.093 12.2537 153.754 13.0513 153.803 14.3564C153.416 13.0513 153.489 12.1087 154.02 11.5286C154.552 10.9002 155.277 10.5619 156.195 10.5135C157.162 10.4168 158.177 10.5377 159.241 10.8761C160.353 11.2144 161.247 11.6736 161.924 12.2537C161.924 11.4803 161.682 10.8277 161.198 10.296C160.763 9.76428 160.208 9.37758 159.531 9.13589C158.902 8.84586 158.226 8.67668 157.501 8.62834C156.776 8.58 156.099 8.60417 155.47 8.70084C154.504 8.8942 153.73 9.25673 153.15 9.78845C152.57 10.3202 152.159 10.9486 151.918 11.6736C151.724 12.3504 151.7 13.0513 151.845 13.7763C152.038 14.5014 152.377 15.1298 152.86 15.6615C152.425 15.4682 152.087 15.154 151.845 14.7189C151.603 14.2355 151.41 13.728 151.265 13.1963C151.168 12.6162 151.12 12.0362 151.12 11.4561C151.12 10.8277 151.192 10.296 151.337 9.86096C151.628 8.65251 151.869 7.70991 152.063 7.03318C152.304 6.30811 152.111 5.60721 151.482 4.93048C151.724 4.68879 152.256 4.39876 153.078 4.06039C153.899 3.72202 155.06 3.55284 156.558 3.55284C157.428 3.55284 158.346 3.74619 159.313 4.1329C160.28 4.47127 161.295 4.85797 162.359 5.29301C163.422 5.67972 164.485 6.04225 165.549 6.38062C166.661 6.71898 167.772 6.88816 168.884 6.88816C168.352 7.41989 167.942 7.90327 167.652 8.33831C167.41 8.77335 167.289 9.40174 167.289 10.2235V30.2354C167.289 30.6221 167.337 30.9847 167.434 31.323C167.531 31.6131 167.748 31.8548 168.087 32.0481L164.026 34.3683C165.621 35.1418 167.168 35.8427 168.667 36.471V11.2386C168.667 10.8519 168.618 10.5135 168.522 10.2235C168.425 9.88513 168.207 9.61927 167.869 9.42591L178.02 3.55284C178.793 3.79453 179.736 4.03622 180.848 4.27791C182.008 4.5196 183.023 4.59211 183.893 4.49543C184.812 4.35042 185.44 3.96372 185.778 3.33532C186.165 2.65859 185.996 1.54681 185.271 -3.22474e-06C185.899 0.773404 186.262 1.57098 186.358 2.39273C186.455 3.16614 186.431 3.93955 186.286 4.71296C186.141 5.48636 185.948 6.25977 185.706 7.03318C185.512 7.75825 185.416 8.43498 185.416 9.06338V14.3564C183.966 14.7914 182.636 15.3473 181.428 16.0241C182.056 16.2657 182.685 16.5316 183.313 16.8216C183.941 17.0633 184.546 17.2567 185.126 17.4017C185.754 17.5467 186.383 17.6192 187.011 17.6192C187.639 17.5709 188.268 17.4259 188.896 17.1842C188.364 17.7159 187.954 18.1993 187.664 18.6343C187.422 19.0694 187.301 19.6977 187.301 20.5195V32.9907ZM174.032 8.19329V33.6433C174.032 33.9333 174.056 34.2233 174.105 34.5134C174.201 34.8034 174.371 35.0451 174.612 35.2384V8.33831L174.032 8.19329ZM171.204 37.5587C171.881 37.8487 172.485 38.1145 173.017 38.3562C173.597 38.5496 174.129 38.7429 174.612 38.9363V35.601L171.204 37.5587ZM175.772 8.62834V21.027C176.159 19.9636 176.715 18.8518 177.44 17.6917C178.213 16.5316 179.084 15.6374 180.05 15.009V10.296V9.86096L175.772 8.62834ZM181.935 22.4772C181.935 22.2838 181.96 22.1388 182.008 22.0421C181.428 21.8005 180.824 21.5346 180.195 21.2446C179.615 20.9545 179.059 20.7612 178.528 20.6645C177.996 20.5678 177.488 20.6645 177.005 20.9545C176.522 21.1962 176.111 21.7279 175.772 22.5497V39.3713C177.948 40.0964 179.519 39.8789 180.485 38.7188C181.452 37.5587 181.935 35.2868 181.935 31.9031V22.4772ZM218.268 39.9514C219.042 39.5163 219.67 38.9846 220.153 38.3562C220.637 37.6795 221.048 36.9303 221.386 36.1085C221.386 37.1719 221.096 38.2112 220.516 39.2263C220.178 39.8547 219.718 40.5314 219.138 41.2565C218.607 41.9816 218.051 42.7308 217.471 43.5042C216.939 44.2293 216.456 44.9785 216.021 45.752C215.586 46.5254 215.32 47.2746 215.223 47.9997C215.126 47.0812 214.715 46.187 213.99 45.3169C213.265 44.4468 212.419 43.6492 211.453 42.9242C210.534 42.1991 209.64 41.5949 208.77 41.1115C207.9 40.5798 207.271 40.1931 206.885 39.9514C207.32 39.9514 207.658 39.8305 207.9 39.5889C208.19 39.3472 208.407 39.0571 208.552 38.7188C208.697 38.3321 208.77 37.9454 208.77 37.5587C208.77 37.1719 208.697 36.8336 208.552 36.5436L203.549 25.8125C202.824 27.311 201.954 29.027 200.939 30.9605C199.924 32.8457 198.933 34.8034 197.966 36.8336C197 38.8154 196.154 40.7973 195.429 42.7792C194.704 44.7127 194.244 46.4529 194.051 47.9997C194.003 47.6613 193.809 47.1054 193.471 46.332C193.181 45.6069 192.794 44.8094 192.311 43.9393C191.827 43.0692 191.272 42.2233 190.643 41.4015C190.015 40.5798 189.386 39.9272 188.758 39.4438C188.13 38.9121 187.501 38.6221 186.873 38.5738C186.293 38.4771 185.785 38.7671 185.35 39.4438C184.77 40.3139 184.504 41.329 184.553 42.4891C184.649 43.6492 184.988 44.6885 185.568 45.6069C186.196 46.5254 187.066 47.1779 188.178 47.5646C189.338 47.9513 190.716 47.7821 192.311 47.0571C191.006 47.7821 189.725 48.0722 188.468 47.9272C187.211 47.7821 186.124 47.3229 185.205 46.5495C184.335 45.8245 183.707 44.8819 183.32 43.7218C182.982 42.5133 183.054 41.2565 183.537 39.9514C183.682 39.3713 183.924 38.7671 184.262 38.1387C184.601 37.5103 184.891 36.8819 185.133 36.2535C185.423 35.5768 185.592 34.9484 185.64 34.3683C185.688 33.7399 185.543 33.1599 185.205 32.6282C185.35 32.5315 185.833 32.4107 186.655 32.2656C187.525 32.1206 188.468 32.2415 189.483 32.6282C190.208 32.9182 190.812 33.2807 191.296 33.7158C191.827 34.1025 192.311 34.5617 192.746 35.0934C193.181 35.5768 193.592 36.0843 193.978 36.6161C194.413 37.1478 194.921 37.6312 195.501 38.0662L202.099 25.0149C201.084 25.0149 199.876 25.0149 198.474 25.0149C197.12 24.9666 195.791 25.0633 194.486 25.305C193.229 25.5467 192.166 26.0059 191.296 26.6826C190.426 27.311 190.015 28.3261 190.063 29.7279C189.821 28.8578 189.87 27.9394 190.208 26.9726C190.546 26.0059 191.006 25.0633 191.586 24.1448C192.166 23.1781 192.794 22.2597 193.471 21.3896C194.196 20.4712 194.776 19.6494 195.211 18.9243C195.404 19.166 195.743 19.3594 196.226 19.5044C196.71 19.6011 197.217 19.6736 197.749 19.7219C198.329 19.7219 198.861 19.7219 199.344 19.7219C199.876 19.6736 200.287 19.6494 200.577 19.6494C199.755 18.3443 198.74 17.0633 197.531 15.8065C196.323 14.5014 195.09 13.5105 193.833 12.8337C192.625 12.1087 191.489 11.8186 190.426 11.9637C189.362 12.0603 188.589 12.8579 188.105 14.3564C188.105 13.0513 188.347 12.0845 188.83 11.4561C189.362 10.7794 190.039 10.3443 190.861 10.151C191.682 9.95763 192.601 10.006 193.616 10.296C194.631 10.5377 195.622 10.9002 196.589 11.3836C195.767 10.2718 194.945 9.45008 194.123 8.91836C193.302 8.38665 192.335 8.12079 191.223 8.12079C190.208 8.12079 189.338 8.31414 188.613 8.70084C187.888 9.08755 187.332 9.57093 186.945 10.151C186.559 10.6827 186.341 11.3111 186.293 12.0362C186.244 12.7129 186.365 13.3896 186.655 14.0664C185.833 13.293 185.519 12.4229 185.713 11.4561C185.906 10.441 186.244 9.47425 186.728 8.55583C187.211 7.58907 187.695 6.71898 188.178 5.94558C188.661 5.12383 188.782 4.5196 188.54 4.1329C188.685 4.03622 189.145 3.89121 189.918 3.69786C190.691 3.5045 191.586 3.40783 192.601 3.40783C194.583 3.40783 196.25 3.86704 197.604 4.78546C198.957 5.70388 200.117 6.88817 201.084 8.33831C202.051 9.74011 202.897 11.2869 203.622 12.9788C204.347 14.6706 205.048 16.2657 205.725 17.7642L212.83 3.55284C213.314 3.84287 214.063 4.18124 215.078 4.56794C216.141 4.90631 217.157 5.148 218.123 5.29301C219.09 5.38969 219.888 5.29301 220.516 5.00298C221.193 4.71295 221.41 4.03622 221.169 2.97279C221.7 3.74619 221.724 4.61628 221.241 5.58304C220.758 6.50146 220.153 7.44406 219.428 8.41082C218.752 9.32924 218.123 10.2235 217.543 11.0936C217.012 11.9153 216.963 12.5921 217.398 13.1238C216.867 13.0271 216.069 12.7854 215.005 12.3987C213.99 11.9637 212.758 11.2628 211.308 10.296L206.667 19.6494C207.586 19.6494 208.673 19.6736 209.93 19.7219C211.235 19.7219 212.444 19.6011 213.555 19.3594C214.715 19.0694 215.682 18.6101 216.456 17.9817C217.277 17.305 217.664 16.2899 217.616 14.9365C217.857 15.8065 217.809 16.725 217.471 17.6917C217.132 18.6585 216.673 19.6252 216.093 20.592C215.513 21.5104 214.86 22.4288 214.135 23.3473C213.459 24.2174 212.903 25.0391 212.468 25.8125C212.178 25.3775 211.67 25.1358 210.945 25.0874C210.268 25.0391 209.664 25.0149 209.132 25.0149L214.425 36.5436C214.764 37.1236 215.296 37.8003 216.021 38.5738C216.746 39.2988 217.495 39.758 218.268 39.9514ZM231.418 38.2112C232.336 38.1629 233.134 38.4046 233.81 38.9363C234.535 39.468 235.067 40.1206 235.405 40.894C235.792 41.6674 235.961 42.4891 235.913 43.3592C235.865 44.181 235.599 44.8335 235.115 45.3169C235.212 44.3501 235.14 43.7218 234.898 43.4317C234.705 43.0934 234.366 42.9242 233.883 42.9242C233.544 43.0209 233.085 43.1659 232.505 43.3592C231.973 43.5526 231.418 43.8426 230.838 44.2293C230.306 44.616 229.822 45.0994 229.387 45.6794C228.952 46.3078 228.686 47.0812 228.59 47.9997C228.541 47.5646 228.251 47.0812 227.72 46.5495C227.236 46.0178 226.656 45.4619 225.98 44.8819C225.303 44.3018 224.626 43.6976 223.949 43.0692C223.321 42.4408 222.838 41.7882 222.499 41.1115C222.161 40.3864 222.04 39.6614 222.137 38.9363C222.282 38.1629 222.813 37.3653 223.732 36.5436C223.103 37.5103 222.862 38.2837 223.007 38.8638C223.2 39.4438 223.514 39.8064 223.949 39.9514C224.384 40.0964 224.844 40.0239 225.327 39.7339C225.81 39.4438 226.052 38.9121 226.052 38.1387V10.5135C225.762 10.8035 225.327 11.2144 224.747 11.7461C224.215 12.2779 223.635 12.8096 223.007 13.3413C222.378 13.873 221.774 14.3322 221.194 14.7189C220.614 15.1056 220.179 15.299 219.889 15.299C220.372 14.8156 220.421 14.2114 220.034 13.4863C219.647 12.7612 219.188 11.9878 218.656 11.1661C218.125 10.296 217.69 9.45008 217.351 8.62834C217.061 7.80659 217.23 7.03318 217.859 6.30811C217.714 7.22653 217.786 7.85493 218.076 8.19329C218.366 8.48332 218.753 8.62834 219.236 8.62834C219.72 8.58 220.227 8.41081 220.759 8.12079C221.339 7.78242 221.822 7.44406 222.209 7.10569C222.789 6.52563 223.345 5.89723 223.877 5.2205C225.279 5.99391 226.656 6.74315 228.01 7.46822C229.412 8.14496 230.813 8.8942 232.215 9.71594C231.877 9.95763 231.659 10.2477 231.563 10.586C231.466 10.8761 231.418 11.2144 231.418 11.6011V38.2112Z" fill="white"/>
</svg>
